HIERARCHY
ROOT newVegas:Hips
{
	OFFSET 0.000000 96.479958 0.000000
	CHANNELS 6 Xposition Yposition Zposition Xrotation Yrotation Zrotation
	JOINT newVegas:Pelvis
	{
		OFFSET 0.000000 0.000000 0.000000
		CHANNELS 3 Xrotation Yrotation Zrotation
		JOINT newVegas:LeftUpLeg
		{
			OFFSET 18.735201 -5.666702 -4.541200
			CHANNELS 3 Xrotation Yrotation Zrotation
			JOINT newVegas:LeftLeg
			{
				OFFSET -0.021200 -31.938179 0.493100
				CHANNELS 3 Xrotation Yrotation Zrotation
				JOINT newVegas:LeftFoot
				{
					OFFSET 0.021200 -31.938179 -4.336299
					CHANNELS 3 Xrotation Yrotation Zrotation
					JOINT newVegas:LeftToeBase
					{
						OFFSET 0.943001 -26.722000 15.023500
						CHANNELS 3 Xrotation Yrotation Zrotation
						End Site
						{
							OFFSET 0.000000 30.670183 0.000000
						}
					}
				}
				JOINT newVegas:Left_PantLeg
				{
					OFFSET 0.663870 -9.044666 -1.108900
					CHANNELS 3 Xrotation Yrotation Zrotation
					End Site
					{
						OFFSET 1.415995 20.635357 0.000000
					}
				}
			}
		}
		JOINT newVegas:RightUpLeg
		{
			OFFSET -18.735201 -5.666702 -4.541200
			CHANNELS 3 Xrotation Yrotation Zrotation
			JOINT newVegas:RightLeg
			{
				OFFSET 0.018946 -31.938133 0.493100
				CHANNELS 3 Xrotation Yrotation Zrotation
				JOINT newVegas:RightFoot
				{
					OFFSET -0.018946 -31.938126 -4.336299
					CHANNELS 3 Xrotation Yrotation Zrotation
					JOINT newVegas:RightToeBase
					{
						OFFSET -0.943001 -26.722004 15.023500
						CHANNELS 3 Xrotation Yrotation Zrotation
						End Site
						{
							OFFSET 0.000000 30.670187 0.000000
						}
					}
				}
				JOINT newVegas:Right_PantLeg
				{
					OFFSET -0.661674 -9.044716 -1.108900
					CHANNELS 3 Xrotation Yrotation Zrotation
					End Site
					{
						OFFSET -1.415958 20.635269 0.000000
					}
				}
			}
		}
	}
	JOINT newVegas:Spine
	{
		OFFSET 0.000000 10.199997 -0.299500
		CHANNELS 3 Xrotation Yrotation Zrotation
		JOINT newVegas:Spine1
		{
			OFFSET 0.000000 11.900002 -1.516600
			CHANNELS 3 Xrotation Yrotation Zrotation
			JOINT newVegas:Spine2
			{
				OFFSET 0.000000 13.600006 -2.842500
				CHANNELS 3 Xrotation Yrotation Zrotation
				JOINT newVegas:Neck
				{
					OFFSET 0.000000 9.624100 -2.890100
					CHANNELS 3 Xrotation Yrotation Zrotation
					JOINT newVegas:Head
					{
						OFFSET 0.000000 14.068802 -1.351900
						CHANNELS 3 Xrotation Yrotation Zrotation
						JOINT newVegas:Hair_Back
						{
							OFFSET 0.000000 3.231903 -17.524799
							CHANNELS 3 Xrotation Yrotation Zrotation
							End Site
							{
								OFFSET 0.000000 19.849884 0.000000
							}
						}
						JOINT newVegas:Hair_Front
						{
							OFFSET 0.000000 31.260406 4.573800
							CHANNELS 3 Xrotation Yrotation Zrotation
							JOINT newVegas:Hair_Front1
							{
								OFFSET 0.000000 2.284103 11.993300
								CHANNELS 3 Xrotation Yrotation Zrotation
								JOINT newVegas:Hair_Front2
								{
									OFFSET 0.000000 2.284103 11.993300
									CHANNELS 3 Xrotation Yrotation Zrotation
									End Site
									{
										OFFSET 0.000000 12.208862 0.000000
									}
								}
							}
						}
						JOINT newVegas:Jowel
						{
							OFFSET 0.000000 -7.458206 6.864100
							CHANNELS 3 Xrotation Yrotation Zrotation
							End Site
							{
								OFFSET 0.000000 19.849884 0.000000
							}
						}
					}
				}
				JOINT newVegas:LeftShoulder
				{
					OFFSET 15.263000 10.923401 -0.547700
					CHANNELS 3 Xrotation Yrotation Zrotation
					JOINT newVegas:LeftArm
					{
						OFFSET 25.438599 -2.830597 -13.032500
						CHANNELS 3 Xrotation Yrotation Zrotation
						JOINT newVegas:LeftForeArm
						{
							OFFSET 29.960503 0.000000 0.000000
							CHANNELS 3 Xrotation Yrotation Zrotation
							JOINT newVegas:LeftHand
							{
								OFFSET 27.849251 0.000000 0.000000
								CHANNELS 3 Xrotation Yrotation Zrotation
								JOINT newVegas:LeftHandThumb1
								{
									OFFSET 4.487587 -3.305161 6.305391
									CHANNELS 3 Xrotation Yrotation Zrotation
									JOINT newVegas:LeftHandThumb2
									{
										OFFSET 5.480453 -3.164139 3.164143
										CHANNELS 3 Xrotation Yrotation Zrotation
										JOINT newVegas:LeftHandThumb3
										{
											OFFSET 5.159721 -2.978973 2.978967
											CHANNELS 3 Xrotation Yrotation Zrotation
											End Site
											{
												OFFSET 2.494507 5.926697 1.738678
											}
										}
									}
								}
								JOINT newVegas:LeftHandIndex1
								{
									OFFSET 18.578728 -0.527832 5.208049
									CHANNELS 3 Xrotation Yrotation Zrotation
									JOINT newVegas:LeftHandIndex2
									{
										OFFSET 3.192009 0.000000 0.000000
										CHANNELS 3 Xrotation Yrotation Zrotation
										JOINT newVegas:LeftHandIndex3
										{
											OFFSET 3.835129 0.000000 0.000000
											CHANNELS 3 Xrotation Yrotation Zrotation
											End Site
											{
												OFFSET -0.034599 3.816971 0.371180
											}
										}
									}
								}
								JOINT newVegas:LeftHandMiddle1
								{
									OFFSET 18.476105 0.000000 0.000000
									CHANNELS 3 Xrotation Yrotation Zrotation
									JOINT newVegas:LeftHandMiddle2
									{
										OFFSET 3.324875 0.000000 0.000000
										CHANNELS 3 Xrotation Yrotation Zrotation
										JOINT newVegas:LeftHandMiddle3
										{
											OFFSET 4.596550 0.000000 0.000000
											CHANNELS 3 Xrotation Yrotation Zrotation
											End Site
											{
												OFFSET 0.057701 4.578827 0.399218
											}
										}
									}
								}
								JOINT newVegas:LeftHandRing1
								{
									OFFSET 17.732719 0.121887 -4.201567
									CHANNELS 3 Xrotation Yrotation Zrotation
									JOINT newVegas:LeftHandRing2
									{
										OFFSET 2.733170 0.000000 0.000000
										CHANNELS 3 Xrotation Yrotation Zrotation
										JOINT newVegas:LeftHandRing3
										{
											OFFSET 3.178268 0.000000 0.000000
											CHANNELS 3 Xrotation Yrotation Zrotation
											End Site
											{
												OFFSET 0.119102 3.170624 0.185394
											}
										}
									}
								}
								JOINT newVegas:LeftHandPinky1
								{
									OFFSET 15.989624 -0.606689 -7.535461
									CHANNELS 3 Xrotation Yrotation Zrotation
									JOINT newVegas:LeftHandPinky2
									{
										OFFSET 2.538986 0.000000 0.000000
										CHANNELS 3 Xrotation Yrotation Zrotation
										JOINT newVegas:LeftHandPinky3
										{
											OFFSET 2.593102 0.000000 0.000000
											CHANNELS 3 Xrotation Yrotation Zrotation
											End Site
											{
												OFFSET -0.150902 2.584198 0.152708
											}
										}
									}
								}
							}
							JOINT newVegas:Left_Sleeve
							{
								OFFSET 0.267448 -0.649796 0.577675
								CHANNELS 3 Xrotation Yrotation Zrotation
								End Site
								{
									OFFSET 0.000000 15.991241 0.000000
								}
							}
							JOINT newVegas:Left_CapeC
							{
								OFFSET 15.715958 -8.608795 -6.935905
								CHANNELS 3 Xrotation Yrotation Zrotation
								JOINT newVegas:Left_CapeC1
								{
									OFFSET 0.000000 -8.688499 0.000000
									CHANNELS 3 Xrotation Yrotation Zrotation
									End Site
									{
										OFFSET 0.000000 8.688499 0.000000
									}
								}
							}
						}
						JOINT newVegas:Left_CapeB
						{
							OFFSET 26.118385 -8.608795 -7.079235
							CHANNELS 3 Xrotation Yrotation Zrotation
							JOINT newVegas:Left_CapeB1
							{
								OFFSET 0.000000 -8.688499 0.000000
								CHANNELS 3 Xrotation Yrotation Zrotation
								End Site
								{
									OFFSET 0.000000 8.688499 0.000000
								}
							}
						}
						JOINT newVegas:Left_CapeA
						{
							OFFSET 5.115639 -8.608795 -10.395809
							CHANNELS 3 Xrotation Yrotation Zrotation
							JOINT newVegas:Left_CapeA1
							{
								OFFSET 0.000000 -8.688499 0.000000
								CHANNELS 3 Xrotation Yrotation Zrotation
								End Site
								{
									OFFSET 0.000000 8.688499 0.000000
								}
							}
						}
					}
				}
				JOINT newVegas:RightShoulder
				{
					OFFSET -15.263000 10.923401 -0.547700
					CHANNELS 3 Xrotation Yrotation Zrotation
					JOINT newVegas:RightArm
					{
						OFFSET -25.438599 -2.830597 -13.032500
						CHANNELS 3 Xrotation Yrotation Zrotation
						JOINT newVegas:RightForeArm
						{
							OFFSET -29.960503 0.000000 0.000000
							CHANNELS 3 Xrotation Yrotation Zrotation
							JOINT newVegas:RightHand
							{
								OFFSET -27.849251 0.000000 0.000000
								CHANNELS 3 Xrotation Yrotation Zrotation
								JOINT newVegas:RightHandThumb1
								{
									OFFSET -4.487587 -3.305161 6.305391
									CHANNELS 3 Xrotation Yrotation Zrotation
									JOINT newVegas:RightHandThumb2
									{
										OFFSET -5.480453 -3.164139 3.164143
										CHANNELS 3 Xrotation Yrotation Zrotation
										JOINT newVegas:RightHandThumb3
										{
											OFFSET -5.159721 -2.978973 2.978967
											CHANNELS 3 Xrotation Yrotation Zrotation
											End Site
											{
												OFFSET -2.494507 5.926697 1.738678
											}
										}
									}
								}
								JOINT newVegas:RightHandIndex1
								{
									OFFSET -18.578728 -0.527832 5.208049
									CHANNELS 3 Xrotation Yrotation Zrotation
									JOINT newVegas:RightHandIndex2
									{
										OFFSET -3.192009 0.000000 0.000000
										CHANNELS 3 Xrotation Yrotation Zrotation
										JOINT newVegas:RightHandIndex3
										{
											OFFSET -3.835129 0.000000 0.000000
											CHANNELS 3 Xrotation Yrotation Zrotation
											End Site
											{
												OFFSET 0.034599 3.816971 0.371180
											}
										}
									}
								}
								JOINT newVegas:RightHandMiddle1
								{
									OFFSET -18.476105 0.000000 0.000000
									CHANNELS 3 Xrotation Yrotation Zrotation
									JOINT newVegas:RightHandMiddle2
									{
										OFFSET -3.324875 0.000000 0.000000
										CHANNELS 3 Xrotation Yrotation Zrotation
										JOINT newVegas:RightHandMiddle3
										{
											OFFSET -4.596550 0.000000 0.000000
											CHANNELS 3 Xrotation Yrotation Zrotation
											End Site
											{
												OFFSET -0.057701 4.578827 0.399218
											}
										}
									}
								}
								JOINT newVegas:RightHandRing1
								{
									OFFSET -17.732719 0.121887 -4.201567
									CHANNELS 3 Xrotation Yrotation Zrotation
									JOINT newVegas:RightHandRing2
									{
										OFFSET -2.733170 0.000000 0.000000
										CHANNELS 3 Xrotation Yrotation Zrotation
										JOINT newVegas:RightHandRing3
										{
											OFFSET -3.178268 0.000000 0.000000
											CHANNELS 3 Xrotation Yrotation Zrotation
											End Site
											{
												OFFSET -0.119102 3.170624 0.185394
											}
										}
									}
								}
								JOINT newVegas:RightHandPinky1
								{
									OFFSET -15.989624 -0.606689 -7.535461
									CHANNELS 3 Xrotation Yrotation Zrotation
									JOINT newVegas:RightHandPinky2
									{
										OFFSET -2.538986 0.000000 0.000000
										CHANNELS 3 Xrotation Yrotation Zrotation
										JOINT newVegas:RightHandPinky3
										{
											OFFSET -2.593102 0.000000 0.000000
											CHANNELS 3 Xrotation Yrotation Zrotation
											End Site
											{
												OFFSET 0.150902 2.584198 0.152708
											}
										}
									}
								}
							}
							JOINT newVegas:Right_CapeC
							{
								OFFSET -15.715958 -8.608795 -6.935905
								CHANNELS 3 Xrotation Yrotation Zrotation
								JOINT newVegas:Right_CapeC1
								{
									OFFSET 0.000000 -8.688499 0.000000
									CHANNELS 3 Xrotation Yrotation Zrotation
									End Site
									{
										OFFSET 0.000000 8.688499 0.000000
									}
								}
							}
							JOINT newVegas:Right_Sleeve
							{
								OFFSET -0.267448 -0.649994 0.577675
								CHANNELS 3 Xrotation Yrotation Zrotation
								End Site
								{
									OFFSET 0.000000 15.991302 0.000000
								}
							}
						}
						JOINT newVegas:Right_CapeA
						{
							OFFSET -5.115540 -8.608795 -10.395824
							CHANNELS 3 Xrotation Yrotation Zrotation
							JOINT newVegas:Right_CapeA1
							{
								OFFSET 0.000000 -8.688499 0.000000
								CHANNELS 3 Xrotation Yrotation Zrotation
								End Site
								{
									OFFSET 0.000000 8.688499 0.000000
								}
							}
						}
						JOINT newVegas:Right_CapeB
						{
							OFFSET -26.118187 -8.608795 -7.079266
							CHANNELS 3 Xrotation Yrotation Zrotation
							JOINT newVegas:Right_CapeB1
							{
								OFFSET 0.000000 -8.688499 0.000000
								CHANNELS 3 Xrotation Yrotation Zrotation
								End Site
								{
									OFFSET 0.000000 8.688499 0.000000
								}
							}
						}
					}
				}
				JOINT newVegas:Left_Collar
				{
					OFFSET 18.625099 8.655502 8.828100
					CHANNELS 3 Xrotation Yrotation Zrotation
					JOINT newVegas:Left_Collar1
					{
						OFFSET 14.783401 10.540405 -1.259500
						CHANNELS 3 Xrotation Yrotation Zrotation
						End Site
						{
							OFFSET 0.000000 18.199875 0.000000
						}
					}
				}
				JOINT newVegas:Collar_Back
				{
					OFFSET 0.000000 15.630707 -20.132601
					CHANNELS 3 Xrotation Yrotation Zrotation
					End Site
					{
						OFFSET 0.000000 22.523010 0.000000
					}
				}
				JOINT newVegas:Left_Peck
				{
					OFFSET 17.239599 -5.132599 25.482599
					CHANNELS 3 Xrotation Yrotation Zrotation
					End Site
					{
						OFFSET 0.000000 22.523010 0.000000
					}
				}
				JOINT newVegas:Right_Peck
				{
					OFFSET -17.239599 -5.132202 25.482599
					CHANNELS 3 Xrotation Yrotation Zrotation
					End Site
					{
						OFFSET 0.000000 22.523010 0.000000
					}
				}
				JOINT newVegas:Right_Collar
				{
					OFFSET -18.625099 8.655792 8.828100
					CHANNELS 3 Xrotation Yrotation Zrotation
					JOINT newVegas:Right_Collar1
					{
						OFFSET -14.783401 10.539993 -1.259500
						CHANNELS 3 Xrotation Yrotation Zrotation
						End Site
						{
							OFFSET 0.000000 18.199631 0.000000
						}
					}
				}
			}
		}
		JOINT newVegas:Belly
		{
			OFFSET 0.000000 -6.540398 9.014299
			CHANNELS 3 Xrotation Yrotation Zrotation
			End Site
			{
				OFFSET 0.000000 11.566666 0.000000
			}
		}
	}
	JOINT newVegas:ElvisFacialAnim_Joint
	{
		OFFSET 1.000000 -95.330101 -8.825800
		CHANNELS 3 Xrotation Yrotation Zrotation
		End Site
		{
			OFFSET 0.000000 35.315800 0.000000
		}
	}
}
MOTION
Frames: 4
Frame Time: 0.033333
-0.467724 50.164871 6.702033 0.407145 -14.516546 3.238943 -0.000000 -0.000000 -0.000000 -110.334377 -16.719261 5.582293 109.814108 3.146598 -0.381138 2.576560 -4.425860 -16.208141 -0.000000 0.000000 -0.000000 0.000001 0.000000 -0.000002 -33.876888 11.997991 4.162231 125.306090 6.012602 -2.578086 -17.351220 -14.889667 -18.821628 -0.000001 0.000000 -0.000001 0.000000 -0.000000 -0.000000 2.562469 -0.164927 1.033104 0.788492 -6.354977 -3.970875 -1.031287 -6.756012 -3.236345 4.911998 2.649015 -1.511156 4.912005 2.649025 -1.511166 0.000000 0.000002 -0.000000 4.912077 2.648995 -1.511151 4.911924 2.649031 -1.511150 0.000000 -0.000001 -0.000000 0.000000 0.000002 -0.000001 4.151723 5.211028 -13.307669 -53.272129 -31.839176 -51.546734 0.000265 -83.735626 0.000266 -56.934094 27.243739 39.379343 -14.557452 10.837947 12.229980 0.749529 -4.257842 13.305478 0.000001 -0.000001 -0.000001 -0.809536 2.578177 -31.496403 3.095902 5.163768 -61.866966 0.000000 -0.000001 0.000000 -2.430843 1.729218 -41.460911 2.952354 5.084714 -60.259931 0.000000 0.000000 0.000001 -6.054125 -0.166598 -49.857557 3.046262 5.137019 -61.313966 -0.000001 0.000001 0.000000 -8.298301 -6.522643 -38.520126 2.848765 5.024350 -59.084415 0.000000 0.000000 -0.000001 -0.000000 -0.000001 -0.000004 -0.000000 -0.000001 -0.000004 -0.000000 -0.000001 -0.000003 0.000001 0.000001 0.000000 0.000001 0.000000 -0.000001 0.000001 0.000001 0.000000 -0.000001 0.000000 -0.000001 -14.546618 2.580359 -4.008326 74.863552 137.533085 -53.106032 0.000007 32.117158 -0.000005 -48.989354 -8.692637 -31.991066 8.377148 -4.904141 11.021984 21.620204 -18.183897 -18.379223 -0.000000 -0.000002 0.000003 0.558933 -4.406587 25.436659 1.653042 -3.560342 49.799090 0.000001 0.000001 -0.000000 10.969838 -12.875548 52.800835 6.387557 -4.324403 111.833672 -0.000001 0.000000 -0.000002 3.705081 -7.151314 57.622474 5.328223 -4.608660 98.293430 -0.000000 0.000001 -0.000003 0.474829 -5.173006 58.987693 3.194298 -4.421914 71.674168 -0.000000 0.000003 -0.000000 0.000001 -0.000000 -0.000000 0.000003 -0.000001 -0.000001 0.000001 -0.000001 0.000001 -0.000000 0.000001 0.000000 -0.000000 0.000001 0.000000 -0.000000 0.000001 0.000000 -0.000000 0.000001 0.000000 -0.000000 0.000002 -0.000000 -0.000000 0.000002 -0.000000 -0.000000 0.000002 -0.000000 -0.000000 0.000002 -0.000000 -0.000000 0.000002 -0.000000 -0.000000 0.000002 -0.000000 -0.000000 0.000002 -0.000000 -0.000000 -0.000001 -0.000000 -0.000000 -0.000000 -0.000000 
-0.464911 50.130066 6.680195 0.381243 -14.668212 3.192747 -0.000000 0.000001 0.000000 -110.350141 -16.932409 5.534862 109.924935 3.114228 -0.378178 2.556237 -4.294616 -16.379000 0.000000 -0.000000 -0.000000 0.000000 0.000000 -0.000000 -34.038207 12.347226 4.308600 125.397506 6.229808 -2.402906 -17.310831 -14.956453 -18.804863 0.000000 -0.000001 -0.000000 -0.000000 -0.000000 0.000000 2.554278 -0.191017 1.050119 0.777584 -6.356238 -3.978153 -1.041901 -6.756777 -3.243795 4.913218 2.652959 -1.505158 4.913221 2.652955 -1.505159 -0.000001 -0.000001 0.000000 4.913149 2.652933 -1.505151 4.913300 2.652965 -1.505167 0.000000 0.000002 -0.000000 -0.000001 -0.000001 0.000000 4.164258 5.237217 -13.345637 -53.292746 -31.832397 -51.570162 -0.000227 -83.837362 -0.000219 -56.846220 27.372487 39.533217 -14.557449 10.837950 12.229982 0.749527 -4.257840 13.305480 0.000000 0.000000 -0.000001 -0.809533 2.578177 -31.496406 3.095903 5.163769 -61.866966 -0.000000 0.000001 0.000000 -2.430841 1.729218 -41.460908 2.952354 5.084713 -60.259931 0.000000 -0.000000 0.000002 -6.054122 -0.166601 -49.857557 3.046262 5.137014 -61.313973 0.000000 -0.000001 0.000003 -8.298292 -6.522646 -38.520132 2.848769 5.024349 -59.084422 -0.000002 0.000002 -0.000004 0.000000 -0.000003 -0.000000 0.000000 -0.000003 -0.000000 0.000000 -0.000002 0.000000 -0.000001 0.000001 -0.000001 -0.000001 -0.000000 -0.000003 -0.000001 0.000001 -0.000001 -0.000003 0.000000 -0.000002 -14.536039 2.620047 -3.997957 74.967480 137.478881 -53.202519 -0.000014 32.271954 0.000015 -49.082562 -8.709191 -31.930472 8.377147 -4.904143 11.021981 21.620206 -18.183897 -18.379226 -0.000003 -0.000005 -0.000001 0.558933 -4.406587 25.436664 1.653041 -3.560342 49.799090 0.000000 -0.000001 -0.000001 10.969838 -12.875549 52.800832 6.387557 -4.324402 111.833672 0.000001 -0.000000 0.000002 3.705081 -7.151317 57.622474 5.328221 -4.608662 98.293423 -0.000001 -0.000001 -0.000001 0.474829 -5.173006 58.987693 3.194299 -4.421915 71.674161 0.000001 0.000002 -0.000001 -0.000003 0.000000 -0.000000 0.000002 -0.000001 -0.000000 -0.000003 0.000000 0.000000 -0.000001 0.000000 -0.000000 -0.000001 0.000000 0.000000 -0.000001 0.000000 -0.000000 -0.000001 -0.000000 0.000000 -0.000000 -0.000001 -0.000000 -0.000000 -0.000001 -0.000000 -0.000000 -0.000001 -0.000000 -0.000000 -0.000001 -0.000000 -0.000000 -0.000001 -0.000000 -0.000000 -0.000001 -0.000000 -0.000000 -0.000001 -0.000000 -0.000000 0.000000 -0.000000 -0.000000 0.000001 0.000000 
-0.464323 50.084908 6.646951 0.339118 -14.902028 3.132804 0.000000 0.000001 -0.000000 -110.345203 -17.223085 5.512719 110.081756 3.065669 -0.374338 2.513626 -4.121296 -16.604994 0.000000 -0.000000 -0.000000 0.000000 0.000000 0.000000 -34.281402 12.856914 4.550047 125.530558 6.514745 -2.167311 -17.236886 -15.054790 -18.754627 -0.000000 -0.000000 0.000000 0.000000 -0.000000 -0.000000 2.546497 -0.189952 1.064967 0.767260 -6.346151 -3.982186 -1.052083 -6.746176 -3.247519 4.911442 2.655553 -1.493713 4.911444 2.655564 -1.493712 -0.000001 0.000001 0.000000 4.911445 2.655559 -1.493712 4.911450 2.655547 -1.493709 0.000001 0.000001 0.000000 -0.000001 0.000001 0.000000 4.179849 5.274048 -13.393610 -53.353176 -31.861511 -51.641776 0.000726 -83.930649 0.000703 -56.711614 27.560744 39.737088 -14.557452 10.837950 12.229982 0.749530 -4.257839 13.305476 0.000001 0.000001 -0.000003 -0.809534 2.578177 -31.496400 3.095902 5.163769 -61.866972 0.000000 -0.000001 0.000000 -2.430843 1.729218 -41.460911 2.952353 5.084710 -60.259938 0.000000 0.000001 -0.000001 -6.054121 -0.166599 -49.857560 3.046265 5.137019 -61.313966 -0.000001 0.000003 -0.000000 -8.298294 -6.522645 -38.520129 2.848769 5.024355 -59.084422 -0.000002 0.000000 0.000001 0.000001 -0.000001 0.000003 0.000001 -0.000001 0.000003 0.000001 -0.000000 0.000003 0.000001 -0.000003 0.000000 0.000001 -0.000003 0.000001 0.000001 -0.000003 0.000000 -0.000001 -0.000003 0.000000 -14.522410 2.666743 -3.979278 75.133242 137.393545 -53.366249 0.000007 32.487846 -0.000005 -49.234145 -8.736463 -31.842513 8.377148 -4.904140 11.021982 21.620207 -18.183900 -18.379225 -0.000000 -0.000003 0.000001 0.558933 -4.406586 25.436663 1.653041 -3.560341 49.799087 0.000001 0.000001 0.000000 10.969837 -12.875547 52.800835 6.387557 -4.324404 111.833679 -0.000000 0.000000 -0.000002 3.705082 -7.151316 57.622474 5.328219 -4.608662 98.293423 -0.000001 0.000001 -0.000001 0.474829 -5.173003 58.987693 3.194303 -4.421918 71.674161 -0.000000 0.000000 -0.000003 0.000002 -0.000001 0.000000 0.000002 -0.000000 0.000001 0.000002 -0.000001 0.000001 0.000000 0.000001 -0.000000 0.000000 0.000000 -0.000000 0.000000 0.000001 -0.000000 0.000000 -0.000000 -0.000000 -0.000000 -0.000001 -0.000000 -0.000000 -0.000001 -0.000000 -0.000000 -0.000001 -0.000000 -0.000000 -0.000001 -0.000000 -0.000000 -0.000001 -0.000000 -0.000000 -0.000001 -0.000000 -0.000000 -0.000001 -0.000000 -0.000000 0.000000 -0.000000 0.000000 0.000001 -0.000000 
-0.461511 50.051208 6.610358 0.290624 -15.146091 3.097182 -0.000000 0.000000 -0.000000 -110.291620 -17.460535 5.541928 110.218612 3.034462 -0.371503 2.455609 -3.974563 -16.795391 0.000000 -0.000000 -0.000000 0.000001 0.000000 -0.000000 -34.524328 13.296025 4.771682 125.670385 6.714996 -2.015751 -17.145166 -15.117044 -18.685973 -0.000000 -0.000001 -0.000001 -0.000000 -0.000001 -0.000001 2.543295 -0.154601 1.057060 0.763282 -6.330470 -3.981200 -1.056297 -6.730272 -3.245919 4.908283 2.654449 -1.484698 4.908280 2.654459 -1.484701 0.000000 -0.000001 0.000001 4.908285 2.654458 -1.484694 4.908365 2.654386 -1.484685 0.000001 0.000000 -0.000000 0.000000 -0.000001 0.000001 4.195650 5.304734 -13.440907 -53.400082 -31.910432 -51.718571 0.000088 -83.993070 0.000098 -56.604482 27.759026 39.935898 -14.557454 10.837950 12.229985 0.749529 -4.257843 13.305480 0.000002 -0.000000 -0.000001 -0.809537 2.578176 -31.496403 3.095904 5.163770 -61.866966 0.000001 0.000001 0.000001 -2.430844 1.729217 -41.460908 2.952354 5.084711 -60.259931 0.000002 0.000001 0.000002 -6.054124 -0.166600 -49.857563 3.046265 5.137022 -61.313973 0.000001 0.000001 0.000004 -8.298298 -6.522645 -38.520132 2.848770 5.024359 -59.084422 0.000000 -0.000002 0.000001 0.000000 0.000002 0.000000 0.000000 0.000002 0.000000 0.000000 0.000002 0.000001 0.000001 -0.000003 0.000001 0.000001 -0.000003 0.000001 0.000001 -0.000003 0.000001 -0.000001 -0.000003 0.000001 -14.512269 2.696496 -3.959197 75.317268 137.320926 -53.522114 0.000016 32.675618 -0.000022 -49.389156 -8.786620 -31.755489 8.377145 -4.904140 11.021983 21.620204 -18.183897 -18.379226 0.000000 0.000000 -0.000000 0.558933 -4.406586 25.436661 1.653044 -3.560342 49.799097 0.000000 -0.000001 -0.000001 10.969838 -12.875549 52.800835 6.387557 -4.324403 111.833679 0.000000 0.000000 0.000001 3.705080 -7.151317 57.622467 5.328220 -4.608662 98.293416 0.000000 0.000001 -0.000001 0.474826 -5.173004 58.987693 3.194306 -4.421916 71.674161 0.000000 0.000002 -0.000003 -0.000001 0.000001 -0.000002 0.000001 -0.000000 -0.000002 -0.000001 0.000001 -0.000001 0.000000 0.000000 -0.000000 0.000000 0.000000 -0.000000 0.000000 0.000000 -0.000000 0.000000 -0.000000 -0.000000 0.000000 -0.000000 -0.000000 0.000000 -0.000000 -0.000000 0.000000 -0.000000 -0.000000 0.000000 -0.000000 -0.000000 0.000000 -0.000000 -0.000000 0.000000 -0.000000 -0.000000 0.000000 -0.000000 -0.000000 -0.000000 0.000000 -0.000000 -0.000000 0.000000 -0.000000 
